<svg width="25" height="25" viewBox="0 0 25 25" fill="none" xmlns="http://www.w3.org/2000/svg">
<path d="M14.5834 20.8337C15.1359 20.8337 15.6658 20.6142 16.0566 20.2235C16.4473 19.8328 16.6667 19.3029 16.6667 18.7503C16.6667 18.1978 16.4473 17.6679 16.0566 17.2772C15.6658 16.8865 15.1359 16.667 14.5834 16.667C14.0309 16.667 13.501 16.8865 13.1103 17.2772C12.7196 17.6679 12.5001 18.1978 12.5001 18.7503C12.5001 19.3029 12.7196 19.8328 13.1103 20.2235C13.501 20.6142 14.0309 20.8337 14.5834 20.8337ZM7.29174 20.8337C7.84428 20.8337 8.37418 20.6142 8.76488 20.2235C9.15558 19.8328 9.37508 19.3029 9.37508 18.7503C9.37508 18.1978 9.15558 17.6679 8.76488 17.2772C8.37418 16.8865 7.84428 16.667 7.29174 16.667C6.73921 16.667 6.20931 16.8865 5.81861 17.2772C5.4279 17.6679 5.20841 18.1978 5.20841 18.7503C5.20841 19.3029 5.4279 19.8328 5.81861 20.2235C6.20931 20.6142 6.73921 20.8337 7.29174 20.8337ZM20.873 6.17012C21.133 6.16173 21.3796 6.05253 21.5606 5.86562C21.7416 5.67871 21.8428 5.42873 21.8428 5.16855C21.8428 4.90838 21.7416 4.6584 21.5606 4.47149C21.3796 4.28458 21.133 4.17538 20.873 4.16699H19.674C18.7345 4.16699 17.922 4.81908 17.7178 5.73574L16.4126 11.6128C16.2084 12.5295 15.3959 13.1816 14.4563 13.1816H6.63133L5.12924 7.17116H14.8636C15.1212 7.1594 15.3644 7.0488 15.5425 6.86236C15.7206 6.67591 15.82 6.42798 15.82 6.17012C15.82 5.91226 15.7206 5.66432 15.5425 5.47788C15.3644 5.29143 15.1212 5.18083 14.8636 5.16908H5.12924C4.82473 5.16899 4.5242 5.23832 4.25051 5.37182C3.97682 5.50531 3.73716 5.69945 3.54976 5.93948C3.36236 6.1795 3.23215 6.45909 3.16903 6.75699C3.10591 7.05489 3.11154 7.36326 3.1855 7.65866L4.68758 13.667C4.79586 14.1005 5.046 14.4854 5.39821 14.7604C5.75042 15.0354 6.18447 15.1848 6.63133 15.1847H14.4563C15.368 15.1848 16.2524 14.874 16.9636 14.3036C17.6748 13.7331 18.1701 12.9372 18.3678 12.0472L19.674 6.17012H20.873Z" fill="white"/>
</svg>
