<svg fill="none" height="24" viewBox="0 0 24 24" width="24" xmlns="http://www.w3.org/2000/svg"><path d="m12 21.0001c-.645-.572-1.374-1.167-2.14498-1.8h-.01c-2.715-2.22-5.792-4.732-7.151-7.742-.44648-.9582-.68309-2.00083-.69401-3.05795-.00298-1.45052.57878-2.84102 1.61382-3.85723 1.03504-1.01622 2.43598-1.57238 3.88619-1.54277 1.18063.00186 2.33584.34308 3.32798.983.436.28297.8304.62525 1.172 1.017.3435-.39021.7381-.73229 1.173-1.017.9918-.64005 2.1467-.98128 3.327-.983 1.4502-.02961 2.8512.52655 3.8862 1.54277 1.0351 1.01621 1.6168 2.40671 1.6138 3.85723-.0102 1.05881-.2468 2.10315-.694 3.06295-1.359 3.01-4.435 5.521-7.15 7.737l-.01.008c-.772.629-1.5 1.224-2.145 1.8zm-4.49998-15.99995c-.93149-.01166-1.82993.34484-2.5.992-.64561.63416-1.00644 1.50304-1.00008 2.408.01141.7705.18591 1.52985.51208 2.22795.64151 1.2988 1.50711 2.4741 2.557 3.472.991 1 2.131 1.968 3.11698 2.782.273.225.551.452.829.679l.175.143c.267.218.543.444.81.666l.013-.012.006-.005h.006l.009-.007h.005.005l.018-.015.041-.033.007-.006.011-.008h.006l.009-.008.664-.545.174-.143c.281-.229.559-.456.832-.681.986-.814 2.127-1.781 3.118-2.786 1.0501-.9974 1.9157-2.1724 2.557-3.471.3321-.70415.5091-1.47145.5191-2.24995.0041-.90216-.3566-1.76771-1.0001-2.4-.6688-.65008-1.5674-1.00952-2.5-1-1.1381-.00967-2.226.46737-2.99 1.311l-1.51 1.74-1.51-1.74c-.76391-.84363-1.8519-1.32067-2.98998-1.311z" fill="#c4c4c4"/></svg>