<svg fill="none" height="29" viewBox="0 0 29 29" width="29" xmlns="http://www.w3.org/2000/svg"><path d="m14.3594 2.63733c3.1698 0 3.5653.01167 4.809.07 1.2425.05833 2.0883.25317 2.8326.5425.77.29633 1.4187.69767 2.0674 1.34517.5932.58321 1.0523 1.28868 1.3451 2.06733.2882.74317.4842 1.59017.5425 2.83267.0549 1.2437.07 1.6392.07 4.809s-.0116 3.5653-.07 4.809c-.0583 1.2425-.2543 2.0883-.5425 2.8327-.292.779-.7511 1.4847-1.3451 2.0673-.5834.593-1.2888 1.052-2.0674 1.3452-.7431.2881-1.5901.4841-2.8326.5425-1.2437.0548-1.6392.07-4.809.07-3.1699 0-3.5654-.0117-4.80902-.07-1.2425-.0584-2.08834-.2544-2.83267-.5425-.77895-.2923-1.48455-.7514-2.06733-1.3452-.59336-.5831-1.05242-1.2886-1.34517-2.0673-.28933-.7432-.48417-1.5902-.5425-2.8327-.05483-1.2437-.07-1.6392-.07-4.809s.01167-3.5653.07-4.809c.05833-1.24367.25317-2.08834.5425-2.83267.29194-.77912.75111-1.48479 1.34517-2.06733.58295-.59357 1.2885-1.05265 2.06733-1.34517.74433-.28933 1.589-.48417 2.83267-.5425 1.24362-.05483 1.63912-.07 4.80902-.07zm0 5.83333c-1.5471 0-3.0308.61458-4.1248 1.70854-1.09397 1.094-1.70856 2.5777-1.70856 4.1248s.61459 3.0308 1.70856 4.1248c1.094 1.0939 2.5777 1.7085 4.1248 1.7085s3.0308-.6146 4.1248-1.7085c1.0939-1.094 1.7085-2.5777 1.7085-4.1248s-.6146-3.0308-1.7085-4.1248c-1.094-1.09396-2.5777-1.70854-4.1248-1.70854zm7.5833-.29166c0-.38678-.1536-.75771-.4271-1.0312s-.6444-.42714-1.0312-.42714-.7577.15365-1.0312.42714-.4272.64442-.4272 1.0312c0 .38677.1537.7577.4272 1.03119s.6444.42714 1.0312.42714.7577-.15365 1.0312-.42714.4271-.64442.4271-1.03119zm-7.5833 2.625c.9282 0 1.8185.3687 2.4749 1.0251.6563.6564 1.0251 1.5466 1.0251 2.4749s-.3688 1.8185-1.0251 2.4749c-.6564.6563-1.5467 1.0251-2.4749 1.0251-.9283 0-1.8185-.3688-2.4749-1.0251-.6564-.6564-1.0251-1.5466-1.0251-2.4749s.3687-1.8185 1.0251-2.4749 1.5466-1.0251 2.4749-1.0251z" fill="#888"/></svg>